<svg xmlns="http://www.w3.org/2000/svg" viewBox="0 0 64 64">
  <circle cx="32" cy="32" r="29" fill="#fff"/>
  <g clip-path="url(#a)">
    <path d="M24 4 23 14 32 20 41 14 40 4M23 14 12 20 9 33 16 42 27 39M41 14 52 20 55 33 48 42 37 39M16 42 18 55 29 64M48 42 46 55 35 64M27 39 29 50 35 50 37 39" fill="none" stroke="#050505" stroke-width="3" stroke-linecap="round" stroke-linejoin="round"/>
    <polygon points="32 20 43 28 39 39 25 39 21 28" fill="#fff" stroke="#050505" stroke-width="3" stroke-linejoin="round"/>
    <g fill="#050505" stroke="#050505" stroke-width="3" stroke-linejoin="round">
      <polygon points="24 4 40 4 41 14 32 20 23 14"/>
      <polygon points="52 20 63 26 60 41 48 42 55 33"/>
      <polygon points="12 20 1 26 4 41 16 42 9 33"/>
      <polygon points="29 50 35 50 46 55 40 66 24 66 18 55"/>
      <polygon points="43 28 55 33 48 42 37 39 39 39"/>
      <polygon points="21 28 9 33 16 42 27 39 25 39"/>
    </g>
  </g>
  <circle cx="32" cy="32" r="29" fill="none" stroke="#050505" stroke-width="3.4"/>
  <defs>
    <clipPath id="a">
      <circle cx="32" cy="32" r="29"/>
    </clipPath>
  </defs>
</svg>
